<svg id="Layer_1" data-name="Layer 1" xmlns="http://www.w3.org/2000/svg" viewBox="0 0 574.33 124.22"><defs><style>.cls-1{fill:#fff;}</style></defs><title>balance</title><path d="M531.39,543.13l0.36-.13c0.17,0.24.35,0.47,0.52,0.72q9.47,13.65,18.94,27.31,15,21.71,30,43.43c0.73,1.05,1.35,2.51,3.29,1.46V614q0-36.51,0-73c0-.37,0-0.74,0-1.11,0.08-1.36-.61-1.55-2-1.12v73.35c-2.2-2.6-4-5.28-5.9-8q-22.35-32.25-44.73-64.48a10.16,10.16,0,0,0-2.43-1.71v78.14h1.88V543.13Z" transform="translate(-130.05 -537.94)"/><path d="M704.38,562.2A37.36,37.36,0,0,0,663,539.28c-18.77,3.25-33.33,21.12-31.14,42.5,1.81,17.68,16,34.14,37.17,34.64,18.22,0.43,31.64-12.54,35.2-23.48-1.4-.58-1.92.25-2.48,1.36-8,15.84-25.67,23.59-42.27,18.61-22-6.59-32.49-32.22-21.64-52.78,7.37-14,22.41-21.64,37.82-18.9,11.92,2.12,20.58,8.92,26.11,19.68C702.33,562,702.86,562.85,704.38,562.2Z" transform="translate(-130.05 -537.94)"/><path d="M337.54,614.3V538.8c-2-.56-1.92.63-1.92,1.8q0,36.8,0,73.59c0,0.65.05,1.3,0.08,2H379.2V614.3H337.54Z" transform="translate(-130.05 -537.94)"/><path d="M540.11,631.56l0,0.56c-0.63.33-1.24,0.69-1.88,1-1.5.7-3.09,1.26-4.51,2.09-0.89.52-2.13,1.42-2.15,2.17s1.15,1.72,2,2.35a29.83,29.83,0,0,0,3.07,1.67,22.12,22.12,0,0,1,2.27,1.55c1.11,0.85,1,1.86,0,2.56a36.79,36.79,0,0,1-5.41,3.11A55.18,55.18,0,0,1,517.1,653c-4,.41-8.35,2.41-11.42-2.17-1.06,1.62-.44,3,1.51,3.33a17.26,17.26,0,0,0,5.32.34c6.72-1.07,13.46-2.16,20.09-3.68a21.66,21.66,0,0,0,7.15-3.64c2.18-1.52,2.06-3.32,0-5-1.34-1.07-2.87-1.9-4.31-2.84-2.23-1.45-2.24-2.54.14-3.77,1.85-1,3.87-1.57,5.75-2.47a2.55,2.55,0,0,0,1.33-1.5,2,2,0,0,0-1.33-1.25,106.45,106.45,0,0,0-12.9-1.54c-3.07-.07-6.17.83-9.23,1.46a12.68,12.68,0,0,0-2.9,1.46c1,1.39,2,1.57,2.92.8,2.08-1.69,4.58-1.44,7.35-2-2.46,4.28-4.74,8.2-7,12.13-1.15,2-2.29,4-3.35,6.1a2.61,2.61,0,0,0,.23,1.29,10.53,10.53,0,0,0,1.34-.68,1.55,1.55,0,0,0,.25-0.67,54.8,54.8,0,0,1,10.59-17.59,2.45,2.45,0,0,1,1.48-.82,33.09,33.09,0,0,1,5.53,0A29.66,29.66,0,0,1,540.11,631.56Z" transform="translate(-130.05 -537.94)"/><path d="M595.79,645.39a13.7,13.7,0,0,1,2.8-2.27A23,23,0,0,1,610,641.38c1.37,0.13,3,.46,3,2.07a4.46,4.46,0,0,1-1.77,3.08c-3.56,2.55-7.72,3.38-12,3.51-1.82.06-3.66-.19-4.72-1.91s-0.5-3.72.64-5.18c5.42-6.94,11.57-12.73,21.3-12.28a3.29,3.29,0,0,0,1.32-.71c-0.33-.43-0.65-1.2-1-1.23a12.77,12.77,0,0,0-4,.19c-5,1.29-9.19,4.14-13.08,7.37a29.41,29.41,0,0,0-6.39,6.8c-2.09,3.38-2,7,3.09,7.73,6.32,0.93,11.89-1,16.91-4.67a4.45,4.45,0,0,0,1.74-2.94,2.79,2.79,0,0,0-2.81-2.7,38,38,0,0,0-8.75-.11c-2.41.38-4.69,1.73-7,2.8C595.79,643.57,594.77,644.29,595.79,645.39Z" transform="translate(-130.05 -537.94)"/><path d="M545.73,645.64L545.2,645a26.46,26.46,0,0,0,2.06-2.39,3.52,3.52,0,0,0,.19-1.49,2.76,2.76,0,0,0-1.42.27,19.19,19.19,0,0,0-2.25,3.77c-0.6,1.46.37,2.47,1.9,2a15.18,15.18,0,0,0,3.15-1.47c1.5-.85,2.92-1.84,4.43-2.65a1.77,1.77,0,0,1,1.55,0,1.53,1.53,0,0,1,.16,1.45,31.3,31.3,0,0,1-3.11,5.28c-2.52,3.09-5.34,5.93-7.9,9a9.56,9.56,0,0,0-1.1,3l0.72,0.45a14.61,14.61,0,0,0,2.64-2.05,90.23,90.23,0,0,0,7.18-9.35,10.32,10.32,0,0,1,6.63-5,4.24,4.24,0,0,0,1.32-1.07l-0.41-.66-5.3,2.57a26.8,26.8,0,0,0,1.16-3.3,2.75,2.75,0,0,0-.24-2,2.14,2.14,0,0,0-1.83,0c-1.47.61-2.86,1.4-4.29,2.1S547.3,644.88,545.73,645.64Z" transform="translate(-130.05 -537.94)"/><path d="M595.8,633.27l0.66-.42c-0.34-.64-0.51-1.58-1-1.87a8.92,8.92,0,0,0-4.06-1.46c-4.16.13-8.32,0.54-12.46,1-3.13.37-3.82,1-4.06,2.9-0.28,2.31,1.71,2.7,3.12,3.58a52.69,52.69,0,0,1,5.54,3.6c1.74,1.42,1.65,2.43,0,4a17.77,17.77,0,0,1-11,5.08c-2.76.23-5.72,1.44-8.4-1.12-0.24.68-.68,1.38-0.52,1.57a2.39,2.39,0,0,0,1.53.79,33.86,33.86,0,0,0,19.58-4.8c2.53-1.54,2.65-3.71.28-5.48s-4.69-3.16-7-4.8a2.53,2.53,0,0,1-1.2-1.6,2.4,2.4,0,0,1,1.39-1.67c3.14-.79,6.31-1.51,9.5-2S594,629.47,595.8,633.27Z" transform="translate(-130.05 -537.94)"/><path class="cls-1" d="M130.05,616.19v-77.6h30.37c9.28,0,15.73,4.57,18,12.82,2.51,9-.88,17.87-8.53,22.39a3.89,3.89,0,0,0-.42.38,6.6,6.6,0,0,0,.76.32c7.7,2.15,12.09,7.4,13.95,15,2.2,9-1,18.47-7.94,23.42a15.75,15.75,0,0,1-8.89,3.24C155,616.29,142.62,616.19,130.05,616.19Zm1.92-1.93c0.56,0.05,1,.13,1.4.13,10.59,0,21.19.06,31.78,0a16.71,16.71,0,0,0,10.78-3.7c4.89-4,6.92-9.28,7-15.41,0.18-10.81-7.2-19.78-18.65-19.57-10,.18-20.08,0-30.12,0-0.71,0-1.43.07-2.21,0.1v38.4Zm0-40.69a5.71,5.71,0,0,0,.75.13q14.23,0,28.46,0a16.07,16.07,0,0,0,9.1-2.52c5.61-3.71,8.32-11.53,6.46-18.68s-7.21-11.7-14.78-11.85c-9.67-.19-19.34,0-29,0a7.25,7.25,0,0,0-1,.14v32.79Z" transform="translate(-130.05 -537.94)"/><path class="cls-1" d="M531.39,543.13v72.95h-1.88V537.94a10.16,10.16,0,0,1,2.43,1.71q22.41,32.21,44.73,64.48c1.85,2.67,3.7,5.35,5.9,8V538.74c1.35-.44,2-0.24,2,1.12,0,0.37,0,.74,0,1.11q0,36.51,0,73v1.93c-1.94,1-2.56-.41-3.29-1.46q-15-21.7-30-43.43-9.46-13.67-18.94-27.31c-0.17-.24-0.35-0.48-0.52-0.72Z" transform="translate(-130.05 -537.94)"/><path class="cls-1" d="M419.89,616.72q2.81-7.13,5.61-14.22,12.42-31.36,24.86-62.7a3,3,0,0,1,1.21-1.64c1.11-.45,1.68.25,2.11,1.34,3.48,8.93,7,17.83,10.56,26.74l19.62,49.53c0.11,0.28.18,0.58,0.29,1-1.3.5-2,.21-2.53-1.1-3.07-7.64-6.23-15.24-9.3-22.88a2.29,2.29,0,0,0-2.5-1.75q-17.84.11-35.69,0a2.17,2.17,0,0,0-2.39,1.64c-3,7.66-6.18,15.27-9.22,22.92C422,616.87,421.3,617.27,419.89,616.72ZM470.78,589L452,540.87,433.32,589h37.46Z" transform="translate(-130.05 -537.94)"/><path class="cls-1" d="M290.33,616.77c-1.42.48-2,0-2.53-1.19-3.09-7.7-6.29-15.35-9.39-23a2,2,0,0,0-2.26-1.54q-17.94.08-35.87,0a2.07,2.07,0,0,0-2.3,1.53c-3,7.65-6.18,15.26-9.23,22.91-0.49,1.23-1.09,1.86-2.67,1.29,1.06-2.71,2.12-5.43,3.19-8.13Q243,574,256.77,539.41a2.08,2.08,0,0,1,1.41-1.23,2.33,2.33,0,0,1,1.6,1.24Q275,577.6,290.1,615.82A7.36,7.36,0,0,1,290.33,616.77ZM239.54,589H277L258.2,540.87Z" transform="translate(-130.05 -537.94)"/><path class="cls-1" d="M704.38,562.2c-1.52.65-2-.2-2.61-1.3-5.52-10.76-14.18-17.56-26.11-19.68-15.41-2.74-30.46,4.95-37.82,18.9-10.85,20.56-.34,46.18,21.64,52.78,16.6,5,34.23-2.77,42.27-18.61,0.56-1.11,1.08-1.94,2.48-1.36-3.57,10.94-17,23.91-35.2,23.48-21.14-.49-35.35-17-37.17-34.64-2.19-21.38,12.37-39.25,31.14-42.5A37.36,37.36,0,0,1,704.38,562.2Z" transform="translate(-130.05 -537.94)"/><path class="cls-1" d="M337.54,614.3H379.2v1.87H335.71c0-.67-0.08-1.32-0.08-2q0-36.8,0-73.59c0-1.17-.12-2.36,1.92-1.8v75.5Z" transform="translate(-130.05 -537.94)"/><path class="cls-1" d="M540.11,631.56a29.66,29.66,0,0,0-4.47-1.22,33.09,33.09,0,0,0-5.53,0,2.45,2.45,0,0,0-1.48.82,54.8,54.8,0,0,0-10.59,17.59,1.55,1.55,0,0,1-.25.67,10.53,10.53,0,0,1-1.34.68,2.61,2.61,0,0,1-.23-1.29c1.06-2.06,2.2-4.08,3.35-6.1,2.25-3.94,4.52-7.86,7-12.13-2.77.54-5.27,0.29-7.35,2-0.95.77-1.92,0.6-2.92-.8a12.68,12.68,0,0,1,2.9-1.46c3.06-.63,6.16-1.53,9.23-1.46a106.45,106.45,0,0,1,12.9,1.54,2,2,0,0,1,1.33,1.25,2.55,2.55,0,0,1-1.33,1.5c-1.88.9-3.91,1.51-5.75,2.47-2.39,1.24-2.37,2.32-.14,3.77,1.44,0.94,3,1.77,4.31,2.84,2.09,1.68,2.21,3.48,0,5a21.66,21.66,0,0,1-7.15,3.64c-6.63,1.52-13.37,2.61-20.09,3.68a17.26,17.26,0,0,1-5.32-.34c-2-.32-2.57-1.71-1.51-3.33,3.07,4.57,7.45,2.58,11.42,2.17a55.18,55.18,0,0,0,16.32-4.39,36.79,36.79,0,0,0,5.41-3.11c1.07-.7,1.16-1.71,0-2.56a22.12,22.12,0,0,0-2.27-1.55,29.83,29.83,0,0,1-3.07-1.67c-0.83-.63-2-1.57-2-2.35s1.26-1.65,2.15-2.17c1.43-.83,3-1.39,4.51-2.09,0.64-.3,1.26-0.66,1.88-1Z" transform="translate(-130.05 -537.94)"/><path class="cls-1" d="M595.79,645.39c-1-1.1,0-1.82.74-2.18,2.26-1.08,4.54-2.43,7-2.8a38,38,0,0,1,8.75.11,2.79,2.79,0,0,1,2.81,2.7,4.45,4.45,0,0,1-1.74,2.94c-5,3.67-10.58,5.6-16.91,4.67-5.11-.75-5.19-4.35-3.09-7.73a29.41,29.41,0,0,1,6.39-6.8c3.89-3.22,8.09-6.07,13.08-7.37a12.77,12.77,0,0,1,4-.19c0.36,0,.67.8,1,1.23a3.29,3.29,0,0,1-1.32.71c-9.73-.45-15.88,5.34-21.3,12.28-1.13,1.45-1.76,3.36-.64,5.18s2.9,2,4.72,1.91c4.3-.13,8.46-1,12-3.51a4.46,4.46,0,0,0,1.77-3.08c0-1.61-1.67-1.93-3-2.07a23,23,0,0,0-11.37,1.74A13.7,13.7,0,0,0,595.79,645.39Z" transform="translate(-130.05 -537.94)"/><path class="cls-1" d="M545.73,645.64c1.58-.76,3.16-1.51,4.73-2.28s2.82-1.49,4.29-2.1a2.14,2.14,0,0,1,1.83,0,2.75,2.75,0,0,1,.24,2,26.8,26.8,0,0,1-1.16,3.3l5.3-2.57,0.41,0.66a4.24,4.24,0,0,1-1.32,1.07,10.32,10.32,0,0,0-6.63,5,90.23,90.23,0,0,1-7.18,9.35,14.61,14.61,0,0,1-2.64,2.05l-0.72-.45a9.56,9.56,0,0,1,1.1-3c2.56-3.06,5.38-5.9,7.9-9a31.3,31.3,0,0,0,3.11-5.28,1.53,1.53,0,0,0-.16-1.45,1.77,1.77,0,0,0-1.55,0c-1.51.82-2.93,1.81-4.43,2.65a15.18,15.18,0,0,1-3.15,1.47c-1.53.44-2.5-.57-1.9-2a19.19,19.19,0,0,1,2.25-3.77,2.76,2.76,0,0,1,1.42-.27,3.52,3.52,0,0,1-.19,1.49A26.46,26.46,0,0,1,545.2,645Zm4.7,7.68L550,653l-3.1,3.9,0.37,0.3Z" transform="translate(-130.05 -537.94)"/><path class="cls-1" d="M595.8,633.27c-1.8-3.79-5-3.19-8.1-2.7s-6.36,1.23-9.5,2a2.4,2.4,0,0,0-1.39,1.67,2.53,2.53,0,0,0,1.2,1.6c2.3,1.64,4.73,3.11,7,4.8s2.25,3.94-.28,5.48a33.86,33.86,0,0,1-19.58,4.8,2.39,2.39,0,0,1-1.53-.79c-0.16-.19.27-0.88,0.52-1.57,2.68,2.56,5.64,1.36,8.4,1.12a17.77,17.77,0,0,0,11-5.08c1.63-1.57,1.71-2.58,0-4A52.69,52.69,0,0,0,578,637c-1.41-.88-3.4-1.27-3.12-3.58,0.23-1.92.93-2.53,4.06-2.9,4.14-.49,8.3-0.9,12.46-1a8.92,8.92,0,0,1,4.06,1.46c0.53,0.28.7,1.22,1,1.87Z" transform="translate(-130.05 -537.94)"/><path class="cls-1" d="M624.63,635c0.56,0.19,1.13.36,1.68,0.59a4.74,4.74,0,0,0,5.75-1.79,5.21,5.21,0,0,0-.7-6,4.86,4.86,0,0,0-5.75-.53,4.75,4.75,0,0,0-1.82,5.59c0.25,0.67.46,1.35,0.69,2a5.17,5.17,0,0,1,0-7.49,5.08,5.08,0,0,1,7.36.1,5.22,5.22,0,0,1-.11,7.55A4.76,4.76,0,0,1,624.63,635Z" transform="translate(-130.05 -537.94)"/><path d="M550.42,653.32l-3.15,3.87-0.37-.3L550,653Z" transform="translate(-130.05 -537.94)"/></svg>