<svg id="Layer_1" data-name="Layer 1" xmlns="http://www.w3.org/2000/svg" viewBox="0 0 665.72 124.22"><defs><style>.cls-1{fill:#fff;}</style></defs><title>balance-full</title><path class="cls-1" d="M130.05,391.4V313.8h30.37c9.28,0,15.73,4.57,18,12.82,2.51,9-.88,17.87-8.53,22.39a3.89,3.89,0,0,0-.42.38,6.6,6.6,0,0,0,.76.32c7.7,2.15,12.09,7.4,13.95,15,2.2,9-1,18.47-7.94,23.42a15.75,15.75,0,0,1-8.89,3.24C155,391.49,142.62,391.4,130.05,391.4Zm1.92-1.93c0.56,0.05,1,.13,1.4.13,10.59,0,21.19.06,31.78,0a16.71,16.71,0,0,0,10.78-3.7c4.89-4,6.92-9.28,7-15.41,0.18-10.81-7.2-19.78-18.65-19.57-10,.18-20.08,0-30.12,0-0.71,0-1.43.07-2.21,0.1v38.4Zm0-40.69a5.71,5.71,0,0,0,.75.13q14.23,0,28.46,0a16.07,16.07,0,0,0,9.1-2.52c5.61-3.71,8.32-11.53,6.46-18.68S169.55,316,162,315.88c-9.67-.19-19.34,0-29,0a7.25,7.25,0,0,0-1,.14v32.79Z" transform="translate(-130.05 -313.15)"/><path class="cls-1" d="M531.39,318.33v72.95h-1.88V313.15a10.16,10.16,0,0,1,2.43,1.71q22.41,32.21,44.73,64.48c1.85,2.67,3.7,5.35,5.9,8V313.94c1.35-.44,2-0.24,2,1.12,0,0.37,0,.74,0,1.11q0,36.51,0,73v1.93c-1.94,1-2.56-.41-3.29-1.46q-15-21.7-30-43.43-9.46-13.67-18.94-27.31c-0.17-.24-0.35-0.48-0.52-0.72Z" transform="translate(-130.05 -313.15)"/><path class="cls-1" d="M419.89,391.92q2.81-7.13,5.61-14.22,12.42-31.36,24.86-62.7a3,3,0,0,1,1.21-1.64c1.11-.45,1.68.25,2.11,1.34,3.48,8.93,7,17.83,10.56,26.74L483.85,391c0.11,0.28.18,0.58,0.29,1-1.3.5-2,.21-2.53-1.1-3.07-7.64-6.23-15.24-9.3-22.88a2.29,2.29,0,0,0-2.5-1.75q-17.84.11-35.69,0a2.17,2.17,0,0,0-2.39,1.64c-3,7.66-6.18,15.27-9.22,22.92C422,392.08,421.3,392.47,419.89,391.92Zm50.9-27.68L452,316.07l-18.67,48.18h37.46Z" transform="translate(-130.05 -313.15)"/><path class="cls-1" d="M290.33,392c-1.42.48-2,0-2.53-1.19-3.09-7.7-6.29-15.35-9.39-23a2,2,0,0,0-2.26-1.54q-17.94.08-35.87,0a2.07,2.07,0,0,0-2.3,1.53c-3,7.65-6.18,15.26-9.23,22.91-0.49,1.23-1.09,1.86-2.67,1.29,1.06-2.71,2.12-5.43,3.19-8.13q13.72-34.6,27.49-69.19a2.08,2.08,0,0,1,1.41-1.23,2.33,2.33,0,0,1,1.6,1.24Q275,352.81,290.1,391A7.36,7.36,0,0,1,290.33,392ZM239.54,364.2H277L258.2,316.07Z" transform="translate(-130.05 -313.15)"/><path class="cls-1" d="M704.38,337.4c-1.52.65-2-.2-2.61-1.3-5.52-10.76-14.18-17.56-26.11-19.68-15.41-2.74-30.46,4.95-37.82,18.9-10.85,20.56-.34,46.18,21.64,52.78,16.6,5,34.23-2.77,42.27-18.61,0.56-1.11,1.08-1.94,2.48-1.36-3.57,10.94-17,23.91-35.2,23.48-21.14-.49-35.35-17-37.17-34.64-2.19-21.38,12.37-39.25,31.14-42.5A37.36,37.36,0,0,1,704.38,337.4Z" transform="translate(-130.05 -313.15)"/><path class="cls-1" d="M337.54,389.5H379.2v1.87H335.71c0-.67-0.08-1.32-0.08-2q0-36.8,0-73.59c0-1.17-.12-2.36,1.92-1.8v75.5Z" transform="translate(-130.05 -313.15)"/><path class="cls-1" d="M540.11,406.76a29.66,29.66,0,0,0-4.47-1.22,33.09,33.09,0,0,0-5.53,0,2.45,2.45,0,0,0-1.48.82,54.8,54.8,0,0,0-10.59,17.59,1.55,1.55,0,0,1-.25.67,10.53,10.53,0,0,1-1.34.68,2.61,2.61,0,0,1-.23-1.29c1.06-2.06,2.2-4.08,3.35-6.1,2.25-3.94,4.52-7.86,7-12.13-2.77.54-5.27,0.29-7.35,2-0.95.77-1.92,0.6-2.92-.8a12.68,12.68,0,0,1,2.9-1.46c3.06-.63,6.16-1.53,9.23-1.46a106.45,106.45,0,0,1,12.9,1.54,2,2,0,0,1,1.33,1.25,2.55,2.55,0,0,1-1.33,1.5c-1.88.9-3.91,1.51-5.75,2.47-2.39,1.24-2.37,2.32-.14,3.77,1.44,0.94,3,1.77,4.31,2.84,2.09,1.68,2.21,3.48,0,5a21.66,21.66,0,0,1-7.15,3.64c-6.63,1.52-13.37,2.61-20.09,3.68a17.26,17.26,0,0,1-5.32-.34c-2-.32-2.57-1.71-1.51-3.33,3.07,4.57,7.45,2.58,11.42,2.17a55.18,55.18,0,0,0,16.32-4.39,36.79,36.79,0,0,0,5.41-3.11c1.07-.7,1.16-1.71,0-2.56a22.12,22.12,0,0,0-2.27-1.55,29.83,29.83,0,0,1-3.07-1.67c-0.83-.63-2-1.57-2-2.35s1.26-1.65,2.15-2.17c1.43-.83,3-1.39,4.51-2.09,0.64-.3,1.26-0.66,1.88-1Z" transform="translate(-130.05 -313.15)"/><path class="cls-1" d="M595.79,420.59c-1-1.1,0-1.82.74-2.18,2.26-1.08,4.54-2.43,7-2.8a38,38,0,0,1,8.75.11,2.79,2.79,0,0,1,2.81,2.7,4.45,4.45,0,0,1-1.74,2.94c-5,3.67-10.58,5.6-16.91,4.67-5.11-.75-5.19-4.35-3.09-7.73a29.41,29.41,0,0,1,6.39-6.8c3.89-3.22,8.09-6.07,13.08-7.37a12.77,12.77,0,0,1,4-.19c0.36,0,.67.8,1,1.23a3.29,3.29,0,0,1-1.32.71c-9.73-.45-15.88,5.34-21.3,12.28-1.13,1.45-1.76,3.36-.64,5.18s2.9,2,4.72,1.91c4.3-.13,8.46-1,12-3.51a4.46,4.46,0,0,0,1.77-3.08c0-1.61-1.67-1.93-3-2.07a23,23,0,0,0-11.37,1.74A13.7,13.7,0,0,0,595.79,420.59Z" transform="translate(-130.05 -313.15)"/><path class="cls-1" d="M795.62,391.74H751.31c-0.64-1.65.33-1.76,1.52-1.76H778.5c5.23,0,10.46,0,15.7,0C795.44,390,796.08,390.28,795.62,391.74Z" transform="translate(-130.05 -313.15)"/><path class="cls-1" d="M773.35,316c-6.77,0-13.54,0-20.31,0-0.71,0-2,.57-1.87-0.91a2.32,2.32,0,0,1,1.77-.87c13.54,0,27.08,0,40.62,0a4.2,4.2,0,0,1,1.46.1,1.17,1.17,0,0,1,.63.89,1.18,1.18,0,0,1-.71.8,3.81,3.81,0,0,1-1.28.05H773.35Z" transform="translate(-130.05 -313.15)"/><path class="cls-1" d="M794.56,352.16V354H753.23A3.3,3.3,0,0,1,752,354a1.44,1.44,0,0,1-.81-0.93,1.71,1.71,0,0,1,.77-0.94,1.41,1.41,0,0,1,.72,0h40.82C793.75,352.07,794.05,352.12,794.56,352.16Z" transform="translate(-130.05 -313.15)"/><path class="cls-1" d="M545.73,420.84c1.58-.76,3.16-1.51,4.73-2.28s2.82-1.49,4.29-2.1a2.14,2.14,0,0,1,1.83,0,2.75,2.75,0,0,1,.24,2,26.8,26.8,0,0,1-1.16,3.3l5.3-2.57,0.41,0.66a4.24,4.24,0,0,1-1.32,1.07,10.32,10.32,0,0,0-6.63,5,90.23,90.23,0,0,1-7.18,9.35,14.61,14.61,0,0,1-2.64,2.05l-0.72-.45a9.56,9.56,0,0,1,1.1-3c2.56-3.06,5.38-5.9,7.9-9a31.3,31.3,0,0,0,3.11-5.28,1.53,1.53,0,0,0-.16-1.45,1.77,1.77,0,0,0-1.55,0c-1.51.82-2.93,1.81-4.43,2.65a15.18,15.18,0,0,1-3.15,1.47c-1.53.44-2.5-.57-1.9-2a19.19,19.19,0,0,1,2.25-3.77,2.76,2.76,0,0,1,1.42-.27,3.52,3.52,0,0,1-.19,1.49,26.46,26.46,0,0,1-2.06,2.39Zm4.7,7.68-0.42-.33-3.1,3.9,0.37,0.3Z" transform="translate(-130.05 -313.15)"/><path class="cls-1" d="M595.8,408.47c-1.8-3.79-5-3.19-8.1-2.7s-6.36,1.23-9.5,2a2.4,2.4,0,0,0-1.39,1.67,2.53,2.53,0,0,0,1.2,1.6c2.3,1.64,4.73,3.11,7,4.8s2.25,3.94-.28,5.48a33.86,33.86,0,0,1-19.58,4.8,2.39,2.39,0,0,1-1.53-.79c-0.16-.19.27-0.88,0.52-1.57,2.68,2.56,5.64,1.36,8.4,1.12a17.77,17.77,0,0,0,11-5.08c1.63-1.57,1.71-2.58,0-4a52.69,52.69,0,0,0-5.54-3.6c-1.41-.88-3.4-1.27-3.12-3.58,0.23-1.92.93-2.53,4.06-2.9,4.14-.49,8.3-0.9,12.46-1a8.92,8.92,0,0,1,4.06,1.46c0.53,0.28.7,1.22,1,1.87Z" transform="translate(-130.05 -313.15)"/><path class="cls-1" d="M624.63,410.22c0.56,0.19,1.13.36,1.68,0.59a4.74,4.74,0,0,0,5.75-1.79,5.21,5.21,0,0,0-.7-6,4.86,4.86,0,0,0-5.75-.53,4.75,4.75,0,0,0-1.82,5.59c0.25,0.67.46,1.35,0.69,2a5.17,5.17,0,0,1,0-7.49,5.08,5.08,0,0,1,7.36.1,5.22,5.22,0,0,1-.11,7.55A4.76,4.76,0,0,1,624.63,410.22Z" transform="translate(-130.05 -313.15)"/><path d="M550.42,428.52l-3.15,3.87-0.37-.3,3.1-3.9Z" transform="translate(-130.05 -313.15)"/></svg>